<svg width="14" height="14" viewBox="0 0 14 14" fill="none" xmlns="http://www.w3.org/2000/svg">
<path fill-rule="evenodd" clip-rule="evenodd" d="M10.7076 13.3334C10.6022 13.3334 10.4962 13.3087 10.3989 13.2579L6.99958 11.4777L3.60091 13.2579C3.37558 13.3748 3.10358 13.3548 2.89958 13.2051C2.69425 13.0554 2.59225 12.8022 2.63558 12.5516L3.28291 8.79065L0.536247 6.12768C0.353581 5.9506 0.287581 5.68463 0.365581 5.44139C0.443581 5.19948 0.652247 5.0224 0.904247 4.98631L4.70425 4.433L6.40291 1.00756C6.62825 0.553146 7.37158 0.553146 7.59691 1.00756L9.29558 4.433L13.0956 4.98631C13.3476 5.0224 13.5562 5.19948 13.6342 5.44139C13.7122 5.68463 13.6462 5.9506 13.4636 6.12768L10.7169 8.79065L11.3642 12.5516C11.4076 12.8022 11.3049 13.0554 11.1002 13.2051C10.9842 13.2906 10.8462 13.3334 10.7076 13.3334Z" fill="white"/>
</svg>
