<svg xmlns="http://www.w3.org/2000/svg" width="40" height="40" fill="none"  xmlns:v="https://vecta.io/nano"><path d="M0 20C0 8.954 8.954 0 20 0s20 8.954 20 20-8.954 20-20 20S0 31.046 0 20z" fill="red"/><path d="M30.221 15.06c-.245-.942-.968-1.685-1.886-1.937-1.663-.458-8.335-.458-8.335-.458s-6.671 0-8.335.458c-.918.252-1.641.994-1.886 1.937-.446 1.708-.446 5.272-.446 5.272s0 3.564.446 5.272c.245.942.968 1.685 1.886 1.937 1.664.458 8.335.458 8.335.458s6.671 0 8.335-.458c.918-.252 1.641-.994 1.886-1.937.446-1.708.446-5.272.446-5.272s0-3.564-.446-5.272z" fill="#fff"/><path d="M18 24.001v-6.667l5.333 3.333L18 24.001z" fill="red"/></svg>