<svg width="53" height="54" viewBox="0 0 53 54" fill="none" xmlns="http://www.w3.org/2000/svg">
<path d="M18.0245 29.6252C17.874 25.3984 18.4258 21.134 19.5546 17.0578C20.0187 15.3771 22.6526 16.092 22.176 17.7852C21.1099 21.6483 20.5957 25.6242 20.7462 29.6252C20.8089 31.3686 18.0872 31.3686 18.0245 29.6252Z" fill="#00AB6B"/>
<path d="M28.3091 34.6547C32.1847 33.6262 35.8471 31.9456 39.221 29.8008C39.8355 29.412 40.7261 29.6754 41.0773 30.29C41.4661 30.9422 41.2152 31.7574 40.5881 32.1462C37.0261 34.4164 33.1128 36.1849 29.024 37.2761C27.3308 37.7401 26.6159 35.1062 28.3091 34.6547Z" fill="#00AB6B"/>
<path d="M23.5306 31.8828C26.1394 28.3459 28.5726 24.6835 31.0685 21.0713C31.4824 20.4692 32.2601 20.1933 32.9248 20.5821C33.5268 20.9333 33.8278 21.8364 33.4139 22.4384C30.918 26.0506 28.4848 29.7255 25.876 33.2499C25.437 33.8394 24.697 34.1404 24.0197 33.7391C23.4428 33.4004 23.0916 32.4848 23.5306 31.8828Z" fill="#00BF71"/>
</svg>
